<svg width="74" height="57" viewBox="0 0 74 57" fill="none" xmlns="http://www.w3.org/2000/svg">
<g filter="url(#filter0_d_4211_18)">
<path d="M5.38184 11.1827C5.38184 7.21581 8.59765 4 12.5646 4H61.3173C65.2842 4 68.5 7.21581 68.5 11.1827V31.232C68.5 35.1989 65.2842 38.4147 61.3173 38.4147H56.5777C55.803 38.4147 55.1751 39.0427 55.1751 39.8173L55.1751 46.5395C55.1751 48.1345 53.8821 49.4274 52.2871 49.4274C51.5027 49.4274 50.7519 49.1083 50.2076 48.5434L42.5662 40.6135C41.2124 39.2085 39.3452 38.4147 37.394 38.4147H12.5646C8.59765 38.4147 5.38184 35.1989 5.38184 31.232V11.1827Z" fill="white"/>
</g>
<path d="M10.903 21.0103V20.8517C10.903 20.314 10.9811 19.8154 11.1373 19.3558C11.2936 18.8916 11.5188 18.4895 11.8129 18.1494C12.1117 17.8047 12.4747 17.5381 12.9022 17.3497C13.3342 17.1567 13.8213 17.0601 14.3636 17.0601C14.9106 17.0601 15.3977 17.1567 15.8251 17.3497C16.2571 17.5381 16.6225 17.8047 16.9213 18.1494C17.22 18.4895 17.4475 18.8916 17.6037 19.3558C17.76 19.8154 17.8381 20.314 17.8381 20.8517V21.0103C17.8381 21.548 17.76 22.0467 17.6037 22.5063C17.4475 22.9659 17.22 23.368 16.9213 23.7127C16.6225 24.0528 16.2594 24.3193 15.832 24.5124C15.4046 24.7008 14.9197 24.795 14.3774 24.795C13.8305 24.795 13.3411 24.7008 12.9091 24.5124C12.4816 24.3193 12.1186 24.0528 11.8198 23.7127C11.5211 23.368 11.2936 22.9659 11.1373 22.5063C10.9811 22.0467 10.903 21.548 10.903 21.0103ZM12.5644 20.8517V21.0103C12.5644 21.3458 12.5988 21.6629 12.6678 21.9617C12.7367 22.2604 12.8447 22.5223 12.9918 22.7475C13.1388 22.9727 13.3273 23.1497 13.5571 23.2784C13.7869 23.4071 14.0603 23.4714 14.3774 23.4714C14.6854 23.4714 14.9519 23.4071 15.1771 23.2784C15.4069 23.1497 15.5953 22.9727 15.7424 22.7475C15.8895 22.5223 15.9975 22.2604 16.0664 21.9617C16.14 21.6629 16.1767 21.3458 16.1767 21.0103V20.8517C16.1767 20.5208 16.14 20.2083 16.0664 19.9142C15.9975 19.6155 15.8872 19.3512 15.7355 19.1214C15.5884 18.8916 15.4 18.7124 15.1702 18.5837C14.945 18.4504 14.6762 18.3838 14.3636 18.3838C14.0511 18.3838 13.78 18.4504 13.5502 18.5837C13.325 18.7124 13.1388 18.8916 12.9918 19.1214C12.8447 19.3512 12.7367 19.6155 12.6678 19.9142C12.5988 20.2083 12.5644 20.5208 12.5644 20.8517ZM22.5259 17.198V24.6571H20.8576V17.198H22.5259ZM24.9732 17.198V18.5079H18.4517V17.198H24.9732ZM29.1716 21.093H27.7377V20.252H28.8958C29.19 20.252 29.4243 20.2129 29.599 20.1348C29.7782 20.0567 29.9046 19.9487 29.9781 19.8108C30.0563 19.6683 30.0953 19.5029 30.0953 19.3144C30.0953 19.149 30.0563 18.9927 29.9781 18.8456C29.9046 18.694 29.7782 18.5699 29.599 18.4734C29.4197 18.3769 29.1762 18.3286 28.8682 18.3286C28.6155 18.3286 28.388 18.37 28.1858 18.4527C27.9881 18.5354 27.8319 18.6503 27.717 18.7974C27.6021 18.9445 27.5446 19.1145 27.5446 19.3075H25.8832C25.8832 18.8433 26.0142 18.4435 26.2762 18.108C26.5427 17.7725 26.8989 17.5151 27.3447 17.3359C27.7905 17.1567 28.28 17.067 28.8131 17.067C29.2681 17.067 29.6771 17.1153 30.0402 17.2118C30.4033 17.3037 30.7112 17.4416 30.964 17.6254C31.2213 17.8047 31.4167 18.0299 31.5499 18.301C31.6878 18.5676 31.7567 18.8778 31.7567 19.2317C31.7567 19.4845 31.697 19.7235 31.5775 19.9487C31.458 20.1739 31.2857 20.3738 31.0605 20.5484C30.8353 20.7185 30.5618 20.8517 30.2401 20.9483C29.923 21.0448 29.5668 21.093 29.1716 21.093ZM27.7377 20.6105H29.1716C29.6128 20.6105 30.0034 20.6541 30.3435 20.7414C30.6836 20.8242 30.9686 20.9483 31.1983 21.1137C31.4281 21.2792 31.6005 21.4837 31.7154 21.7273C31.8349 21.9662 31.8946 22.242 31.8946 22.5545C31.8946 22.9038 31.8188 23.2186 31.6671 23.499C31.5201 23.7747 31.3087 24.0091 31.0329 24.2021C30.7617 24.3952 30.4377 24.5422 30.0609 24.6433C29.684 24.7445 29.2681 24.795 28.8131 24.795C28.3167 24.795 27.8342 24.7123 27.3654 24.5468C26.9012 24.3814 26.5174 24.1263 26.2141 23.7816C25.9154 23.4323 25.766 22.9888 25.766 22.4511H27.4274C27.4274 22.6395 27.4849 22.8165 27.5998 22.9819C27.7147 23.1474 27.8801 23.283 28.0961 23.3887C28.3121 23.4898 28.5718 23.5403 28.8751 23.5403C29.1877 23.5403 29.4427 23.4921 29.6403 23.3956C29.838 23.2945 29.985 23.1635 30.0816 23.0026C30.1781 22.8372 30.2263 22.6625 30.2263 22.4787C30.2263 22.2305 30.1781 22.0306 30.0816 21.8789C29.985 21.7273 29.838 21.617 29.6403 21.548C29.4427 21.4745 29.1945 21.4377 28.8958 21.4377H27.7377V20.6105ZM34.5419 19.5695H36.741C37.3844 19.5695 37.9313 19.6775 38.3817 19.8935C38.8321 20.1095 39.1745 20.4105 39.4089 20.7966C39.6479 21.1781 39.7674 21.6147 39.7674 22.1064C39.7674 22.4695 39.7007 22.8073 39.5674 23.1198C39.4342 23.4277 39.2365 23.6966 38.9746 23.9264C38.7172 24.1562 38.4001 24.3354 38.0232 24.4641C37.651 24.5928 37.2235 24.6571 36.741 24.6571H33.4388V17.198H35.1071V23.3404H36.741C37.0719 23.3404 37.3361 23.283 37.5338 23.1681C37.7314 23.0532 37.8739 22.9038 37.9612 22.72C38.0531 22.5361 38.0991 22.3408 38.0991 22.134C38.0991 21.9226 38.0531 21.7227 37.9612 21.5342C37.8739 21.3458 37.7314 21.1918 37.5338 21.0724C37.3361 20.9529 37.0719 20.8931 36.741 20.8931H34.5419V19.5695ZM42.7041 17.198V24.6571H41.0427V17.198H42.7041ZM48.295 21.4653H45.9098L45.896 20.2933H47.8538C48.1755 20.2933 48.4398 20.2612 48.6466 20.1968C48.858 20.1325 49.0143 20.036 49.1154 19.9073C49.2165 19.774 49.267 19.6132 49.267 19.4247C49.267 19.2685 49.2372 19.1329 49.1774 19.018C49.1177 18.8985 49.0258 18.802 48.9017 18.7285C48.7822 18.6503 48.6305 18.5952 48.4467 18.563C48.2674 18.5262 48.0583 18.5079 47.8193 18.5079H46.4613V24.6571H44.7998V17.198H47.8193C48.2973 17.198 48.727 17.2394 49.1085 17.3221C49.4945 17.4048 49.8231 17.5312 50.0943 17.7013C50.3655 17.8713 50.5723 18.0873 50.7147 18.3493C50.8618 18.6067 50.9353 18.91 50.9353 19.2593C50.9353 19.4891 50.8848 19.7051 50.7837 19.9073C50.6872 20.1095 50.5424 20.2888 50.3494 20.445C50.1563 20.6013 49.9197 20.73 49.6393 20.8311C49.359 20.9276 49.0372 20.9873 48.6742 21.0103L48.295 21.4653ZM48.295 24.6571H45.4272L46.089 23.3473H48.295C48.5892 23.3473 48.8327 23.3105 49.0258 23.237C49.2188 23.1635 49.3613 23.0578 49.4532 22.9199C49.5497 22.7774 49.5979 22.6097 49.5979 22.4166C49.5979 22.219 49.552 22.049 49.4601 21.9065C49.3682 21.764 49.2257 21.656 49.0327 21.5825C48.8442 21.5044 48.5983 21.4653 48.295 21.4653H46.3992L46.413 20.2933H48.6673L49.143 20.7483C49.6163 20.7805 50.0093 20.8816 50.3218 21.0517C50.6343 21.2217 50.8687 21.4354 51.025 21.6928C51.1812 21.9502 51.2594 22.2305 51.2594 22.5338C51.2594 22.8831 51.1927 23.191 51.0594 23.4576C50.9308 23.7242 50.7377 23.9471 50.4804 24.1263C50.2276 24.301 49.9174 24.4342 49.5497 24.5262C49.182 24.6135 48.7638 24.6571 48.295 24.6571ZM53.9273 19.5695H56.1264C56.7698 19.5695 57.3167 19.6775 57.7671 19.8935C58.2175 20.1095 58.5599 20.4105 58.7943 20.7966C59.0333 21.1781 59.1528 21.6147 59.1528 22.1064C59.1528 22.4695 59.0861 22.8073 58.9529 23.1198C58.8196 23.4277 58.622 23.6966 58.36 23.9264C58.1026 24.1562 57.7855 24.3354 57.4086 24.4641C57.0364 24.5928 56.609 24.6571 56.1264 24.6571H52.8243V17.198H54.4926V23.3404H56.1264C56.4573 23.3404 56.7216 23.283 56.9192 23.1681C57.1168 23.0532 57.2593 22.9038 57.3466 22.72C57.4385 22.5361 57.4845 22.3408 57.4845 22.134C57.4845 21.9226 57.4385 21.7227 57.3466 21.5342C57.2593 21.3458 57.1168 21.1918 56.9192 21.0724C56.7216 20.9529 56.4573 20.8931 56.1264 20.8931H53.9273V19.5695ZM62.0895 17.198V24.6571H60.4281V17.198H62.0895Z" fill="black"/>
<defs>
<filter id="filter0_d_4211_18" x="0.398823" y="0.677991" width="73.0842" height="55.3935" filterUnits="userSpaceOnUse" color-interpolation-filters="sRGB">
<feFlood flood-opacity="0" result="BackgroundImageFix"/>
<feColorMatrix in="SourceAlpha" type="matrix" values="0 0 0 0 0 0 0 0 0 0 0 0 0 0 0 0 0 0 127 0" result="hardAlpha"/>
<feOffset dy="1.661"/>
<feGaussianBlur stdDeviation="2.49151"/>
<feComposite in2="hardAlpha" operator="out"/>
<feColorMatrix type="matrix" values="0 0 0 0 0 0 0 0 0 0 0 0 0 0 0 0 0 0 0.15 0"/>
<feBlend mode="normal" in2="BackgroundImageFix" result="effect1_dropShadow_4211_18"/>
<feBlend mode="normal" in="SourceGraphic" in2="effect1_dropShadow_4211_18" result="shape"/>
</filter>
</defs>
</svg>
