<svg width="44" height="35" viewBox="0 0 44 35" fill="none" xmlns="http://www.w3.org/2000/svg">
<g filter="url(#filter0_d_2126_23)">
<path d="M3 6.32432C3 3.93606 4.93607 2 7.32432 2H36.6757C39.0639 2 41 3.93607 41 6.32432V18.9992C41 21.3875 39.0639 23.3235 36.6757 23.3235H33.8222C33.3559 23.3235 32.9778 23.7016 32.9778 24.168L32.9778 28.4187C32.9778 29.3733 32.204 30.1471 31.2494 30.1471C30.7713 30.1471 30.3146 29.949 29.9878 29.6L25.3927 24.6923C24.5751 23.8191 23.4323 23.3235 22.236 23.3235H7.32433C4.93607 23.3235 3 21.3875 3 18.9992V6.32432Z" fill="white"/>
<path d="M3.43243 6.32432C3.43243 4.17489 5.17489 2.43243 7.32432 2.43243H36.6757C38.8251 2.43243 40.5676 4.17489 40.5676 6.32432V18.9992C40.5676 21.1486 38.8251 22.8911 36.6757 22.8911H33.8222C33.117 22.8911 32.5453 23.4628 32.5453 24.168L32.5453 28.4187C32.5453 29.1344 31.9651 29.7146 31.2494 29.7146C30.8909 29.7146 30.5485 29.5661 30.3034 29.3044L25.7083 24.3967C24.809 23.4362 23.5519 22.8911 22.236 22.8911H7.32433C5.1749 22.8911 3.43243 21.1486 3.43243 18.9992V6.32432Z" stroke="black" stroke-width="0.864865"/>
</g>
<path d="M6.29883 13.1643V13.0771C6.29883 12.7479 6.34587 12.4449 6.43994 12.1682C6.53402 11.8888 6.67098 11.6466 6.85083 11.4419C7.03068 11.2371 7.25065 11.078 7.51074 10.9646C7.77083 10.8484 8.06689 10.7903 8.39893 10.7903C8.73649 10.7903 9.03532 10.8484 9.29541 10.9646C9.55827 11.078 9.77962 11.2371 9.95947 11.4419C10.1393 11.6466 10.2763 11.8888 10.3704 12.1682C10.4644 12.4449 10.5115 12.7479 10.5115 13.0771V13.1643C10.5115 13.4908 10.4644 13.7938 10.3704 14.0732C10.2763 14.3499 10.1393 14.592 9.95947 14.7996C9.77962 15.0043 9.55965 15.1634 9.29956 15.2769C9.03947 15.3903 8.74202 15.447 8.40723 15.447C8.0752 15.447 7.77775 15.3903 7.51489 15.2769C7.25203 15.1634 7.03068 15.0043 6.85083 14.7996C6.67098 14.592 6.53402 14.3499 6.43994 14.0732C6.34587 13.7938 6.29883 13.4908 6.29883 13.1643ZM7.39453 13.0771V13.1643C7.39453 13.3608 7.4139 13.5448 7.45264 13.7163C7.49137 13.8879 7.55086 14.0387 7.6311 14.1687C7.71134 14.2987 7.8151 14.4011 7.94238 14.4758C8.07243 14.5478 8.22738 14.5837 8.40723 14.5837C8.58431 14.5837 8.73649 14.5478 8.86377 14.4758C8.99105 14.4011 9.09481 14.2987 9.17505 14.1687C9.25806 14.0387 9.31893 13.8879 9.35767 13.7163C9.3964 13.5448 9.41577 13.3608 9.41577 13.1643V13.0771C9.41577 12.8835 9.3964 12.7022 9.35767 12.5334C9.31893 12.3619 9.25806 12.2111 9.17505 12.0811C9.09481 11.9482 8.98966 11.8445 8.85962 11.7698C8.73234 11.6923 8.57878 11.6536 8.39893 11.6536C8.22184 11.6536 8.06966 11.6923 7.94238 11.7698C7.8151 11.8445 7.71134 11.9482 7.6311 12.0811C7.55086 12.2111 7.49137 12.3619 7.45264 12.5334C7.4139 12.7022 7.39453 12.8835 7.39453 13.0771ZM13.3794 10.8733V15.364H12.2795V10.8733H13.3794ZM14.8403 10.8733V11.7283H10.8435V10.8733H14.8403ZM17.4094 13.2224H16.5337V12.6995H17.2019C17.3652 12.6995 17.4952 12.6773 17.592 12.6331C17.6917 12.5888 17.7622 12.5265 17.8037 12.4463C17.848 12.366 17.8701 12.2734 17.8701 12.1682C17.8701 12.0741 17.8494 11.9856 17.8079 11.9026C17.7664 11.8168 17.6972 11.7476 17.6003 11.6951C17.5035 11.6397 17.3693 11.6121 17.1978 11.6121C17.0566 11.6121 16.9307 11.6342 16.8201 11.6785C16.7094 11.7227 16.6222 11.785 16.5586 11.8652C16.495 11.9455 16.4631 12.0409 16.4631 12.1516H15.3633C15.3633 11.8694 15.4435 11.6273 15.604 11.4253C15.7673 11.2233 15.9845 11.0684 16.2556 10.9604C16.5268 10.8498 16.8242 10.7944 17.1479 10.7944C17.4274 10.7944 17.6792 10.8235 17.9033 10.8816C18.1274 10.9369 18.3184 11.0199 18.4761 11.1306C18.6338 11.2413 18.7555 11.3783 18.8413 11.5415C18.9271 11.702 18.97 11.8888 18.97 12.1018C18.97 12.254 18.934 12.3979 18.8621 12.5334C18.7901 12.669 18.6864 12.7894 18.5508 12.8945C18.4152 12.9969 18.2506 13.0771 18.0569 13.1353C17.866 13.1934 17.6501 13.2224 17.4094 13.2224ZM16.5337 12.9236H17.4094C17.6778 12.9236 17.913 12.9499 18.115 13.0024C18.3197 13.0522 18.4913 13.127 18.6296 13.2266C18.768 13.3262 18.8717 13.4493 18.9409 13.5959C19.0129 13.7398 19.0488 13.9058 19.0488 14.094C19.0488 14.307 19.0018 14.498 18.9077 14.6667C18.8164 14.8328 18.6864 14.9739 18.5176 15.0901C18.3488 15.2063 18.1482 15.2948 17.9158 15.3557C17.6833 15.4166 17.4274 15.447 17.1479 15.447C16.8464 15.447 16.5531 15.3972 16.2681 15.2976C15.9858 15.198 15.752 15.0444 15.5667 14.8369C15.384 14.6294 15.2927 14.3624 15.2927 14.0359H16.3926C16.3926 14.141 16.4244 14.2393 16.488 14.3306C16.5517 14.4219 16.643 14.4952 16.762 14.5505C16.8837 14.6031 17.0304 14.6294 17.2019 14.6294C17.3762 14.6294 17.5187 14.6017 17.6294 14.5464C17.7401 14.491 17.8203 14.4177 17.8701 14.3264C17.9227 14.2323 17.949 14.1341 17.949 14.0317C17.949 13.8906 17.9213 13.7772 17.866 13.6914C17.8134 13.6029 17.7304 13.5378 17.6169 13.4963C17.5063 13.4548 17.3679 13.4341 17.2019 13.4341H16.5337V12.9236ZM20.6218 12.2554H21.9333C22.3318 12.2554 22.6707 12.3218 22.9502 12.4546C23.2324 12.5846 23.4469 12.7673 23.5935 13.0024C23.7429 13.2349 23.8176 13.5046 23.8176 13.8118C23.8176 14.0331 23.7747 14.2393 23.689 14.4302C23.606 14.6183 23.4842 14.783 23.3237 14.9241C23.1632 15.0624 22.9654 15.1703 22.7302 15.2478C22.4978 15.3253 22.2322 15.364 21.9333 15.364H19.9163V10.8733H21.0161V14.5049H21.9333C22.1243 14.5049 22.2764 14.4731 22.3899 14.4094C22.5061 14.343 22.5891 14.2586 22.6389 14.1562C22.6915 14.0511 22.7178 13.939 22.7178 13.8201C22.7178 13.6983 22.6915 13.5849 22.6389 13.4797C22.5891 13.3718 22.5061 13.2847 22.3899 13.2183C22.2764 13.1519 22.1243 13.1187 21.9333 13.1187H20.6218V12.2554ZM25.6604 10.8733V15.364H24.5605V10.8733H25.6604ZM28.989 13.4631H27.5654L27.5571 12.7202H28.7275C28.9019 12.7202 29.0444 12.7022 29.155 12.6663C29.2657 12.6303 29.3473 12.5763 29.3999 12.5044C29.4552 12.4325 29.4829 12.3453 29.4829 12.2429C29.4829 12.1544 29.4663 12.0783 29.4331 12.0146C29.3999 11.9482 29.3501 11.8943 29.2837 11.8528C29.2201 11.8113 29.1384 11.7808 29.0388 11.7615C28.942 11.7393 28.8285 11.7283 28.6985 11.7283H27.9556V15.364H26.8557V10.8733H28.6985C28.989 10.8733 29.2505 10.8996 29.4829 10.9521C29.7153 11.002 29.9132 11.078 30.0764 11.1804C30.2397 11.2828 30.3642 11.4128 30.45 11.5706C30.5385 11.7255 30.5828 11.9081 30.5828 12.1184C30.5828 12.2568 30.5523 12.3868 30.4915 12.5085C30.4306 12.6303 30.3407 12.7382 30.2217 12.8323C30.1027 12.9264 29.9561 13.0038 29.7817 13.0647C29.6074 13.1228 29.4082 13.1588 29.1841 13.1726L28.989 13.4631ZM28.989 15.364H27.2708L27.6775 14.509H28.989C29.1495 14.509 29.2823 14.4897 29.3875 14.4509C29.4926 14.4094 29.5701 14.3499 29.6199 14.2725C29.6724 14.195 29.6987 14.1009 29.6987 13.9902C29.6987 13.8823 29.6738 13.7896 29.624 13.7122C29.577 13.6319 29.5009 13.571 29.3958 13.5295C29.2934 13.4853 29.1578 13.4631 28.989 13.4631H27.856L27.8643 12.7202H29.1799L29.4705 13.0149C29.7693 13.0343 30.0169 13.0951 30.2134 13.1975C30.4098 13.2971 30.5565 13.4244 30.6533 13.5793C30.7502 13.7315 30.7986 13.8989 30.7986 14.0815C30.7986 14.2946 30.7585 14.4814 30.6782 14.6418C30.598 14.8023 30.4804 14.9365 30.3254 15.0444C30.1705 15.1496 29.981 15.2298 29.7568 15.2852C29.5327 15.3377 29.2768 15.364 28.989 15.364ZM32.3757 12.2554H33.6873C34.0857 12.2554 34.4246 12.3218 34.7041 12.4546C34.9863 12.5846 35.2008 12.7673 35.3474 13.0024C35.4968 13.2349 35.5715 13.5046 35.5715 13.8118C35.5715 14.0331 35.5286 14.2393 35.4429 14.4302C35.3599 14.6183 35.2381 14.783 35.0776 14.9241C34.9172 15.0624 34.7193 15.1703 34.4841 15.2478C34.2517 15.3253 33.9861 15.364 33.6873 15.364H31.6702V10.8733H32.77V14.5049H33.6873C33.8782 14.5049 34.0304 14.4731 34.1438 14.4094C34.26 14.343 34.343 14.2586 34.3928 14.1562C34.4454 14.0511 34.4717 13.939 34.4717 13.8201C34.4717 13.6983 34.4454 13.5849 34.3928 13.4797C34.343 13.3718 34.26 13.2847 34.1438 13.2183C34.0304 13.1519 33.8782 13.1187 33.6873 13.1187H32.3757V12.2554ZM37.4143 10.8733V15.364H36.3145V10.8733H37.4143Z" fill="black"/>
<defs>
<filter id="filter0_d_2126_23" x="0" y="0" width="44" height="34.1471" filterUnits="userSpaceOnUse" color-interpolation-filters="sRGB">
<feFlood flood-opacity="0" result="BackgroundImageFix"/>
<feColorMatrix in="SourceAlpha" type="matrix" values="0 0 0 0 0 0 0 0 0 0 0 0 0 0 0 0 0 0 127 0" result="hardAlpha"/>
<feOffset dy="1"/>
<feGaussianBlur stdDeviation="1.5"/>
<feComposite in2="hardAlpha" operator="out"/>
<feColorMatrix type="matrix" values="0 0 0 0 0 0 0 0 0 0 0 0 0 0 0 0 0 0 0.15 0"/>
<feBlend mode="normal" in2="BackgroundImageFix" result="effect1_dropShadow_2126_23"/>
<feBlend mode="normal" in="SourceGraphic" in2="effect1_dropShadow_2126_23" result="shape"/>
</filter>
</defs>
</svg>
